<?xml version="1.0" encoding="UTF-8"?>
<svg width="425px" height="247px" viewBox="0 0 425 247" version="1.1" xmlns="http://www.w3.org/2000/svg" xmlns:xlink="http://www.w3.org/1999/xlink">
    <!-- Generator: Sketch 61.2 (89653) - https://sketch.com -->
    <title>LogoWhite</title>
    <desc>Created with Sketch.</desc>
    <g id="Page-1" stroke="none" stroke-width="1" fill="none" fill-rule="evenodd" stroke-opacity="0.203425481">
        <g id="logo-bg-white" transform="translate(-44.000000, -125.000000)" fill="#FFFFFF" fill-rule="nonzero" stroke="#FFFFFF" stroke-width="5">
            <g id="LogoWhite" transform="translate(47.000000, 128.000000)">
                <path d="M140.587891,241 C141.173828,241 141.466797,240.707031 141.466797,240.121094 C139.416016,238.460938 138.390625,236.703125 138.390625,234.847656 L138.390625,234.847656 L138.390625,199.251953 C138.390625,198.763672 138.683594,198.470703 139.269531,198.373047 L139.269531,198.373047 L151.574219,198.373047 C152.160156,198.373047 152.453125,198.666016 152.453125,199.251953 L152.453125,199.251953 L152.453125,235.287109 C151.916016,237.923828 150.890625,239.242188 149.376953,239.242188 L149.376953,239.242188 L149.376953,241 L170.910156,241 L170.910156,239.242188 C169.103516,239.242188 168.078125,238.070312 167.833984,235.726562 L167.833984,235.726562 L167.833984,164.535156 L170.910156,161.019531 L170.910156,160.140625 L149.816406,160.140625 L148.9375,160.580078 L152.453125,164.974609 L152.453125,190.902344 C152.453125,191.488281 152.160156,191.78125 151.574219,191.78125 L151.574219,191.78125 L151.134766,191.78125 L150.255859,191.341797 C150.255859,191.634766 150.109375,191.78125 149.816406,191.78125 L149.816406,191.78125 L146.740234,191.78125 C146.105469,191.78125 145.519531,191.634766 144.982422,191.341797 C144.494141,191.634766 143.908203,191.78125 143.224609,191.78125 L143.224609,191.78125 L140.587891,191.78125 L138.390625,191.341797 L138.390625,165.853516 C138.390625,164.291016 139.5625,162.679688 141.90625,161.019531 C141.90625,160.53125 141.613281,160.238281 141.027344,160.140625 L141.027344,160.140625 L119.933594,160.140625 L119.933594,161.458984 C121.789062,163.119141 122.814453,164.291016 123.009766,164.974609 L123.009766,164.974609 L123.009766,235.287109 C123.009766,237.582031 121.984375,238.900391 119.933594,239.242188 L119.933594,239.242188 L119.933594,241 L140.587891,241 Z M202.216797,241 C208.857422,241 214.277344,237.873684 218.476562,231.621053 C222.578125,223.142105 224.628906,214.9 224.628906,206.894737 L224.628906,206.894737 L224.628906,194.957895 C224.628906,191.831579 224.335938,189.131579 223.75,186.857895 C221.015625,168.952632 213.984375,160 202.65625,160 C198.994141,160 195.625,160.994737 192.548828,162.984211 C184.052734,169.094737 179.804688,181.457895 179.804688,200.073684 C179.804688,203.815789 180.244141,209.5 181.123047,217.126316 C184.541016,233.042105 191.572266,241 202.216797,241 Z M202.65625,235 C198.554688,235 196.503906,229.390244 196.503906,218.170732 L196.503906,218.170732 L196.503906,181.567073 C197.041016,171.189024 198.945312,166 202.216797,166 L202.216797,166 L203.095703,166 C206.611328,166 208.369141,175.115854 208.369141,193.347561 L208.369141,193.347561 L208.369141,206.390244 C208.369141,225.463415 206.464844,235 202.65625,235 Z M247.073242,241 C254.983398,241 260.696289,239.828125 264.211914,237.484375 C273.879883,228.890625 278.713867,215.121094 278.713867,196.175781 L278.713867,196.175781 L278.713867,193.539062 C278.713867,185.482422 277.395508,178.451172 274.758789,172.445312 C270.901367,163.949219 263.137695,159.701172 251.467773,159.701172 L251.467773,159.701172 L233.889648,159.701172 C233.401367,159.701172 233.108398,159.994141 233.010742,160.580078 L233.010742,160.580078 L233.010742,161.019531 C235.061523,162.044922 236.086914,165.414062 236.086914,171.126953 L236.086914,171.126953 L236.086914,233.96875 L235.647461,234.847656 L236.086914,234.847656 C236.086914,235.970703 235.061523,237.582031 233.010742,239.681641 L233.010742,239.681641 L233.010742,240.121094 C233.010742,240.707031 233.303711,241 233.889648,241 C234.866211,241 235.598633,240.853516 236.086914,240.560547 L236.086914,240.560547 L238.723633,241 L247.073242,241 Z M252.786133,235.287109 C251.614258,234.994141 251.02832,234.115234 251.02832,232.650391 L251.02832,232.650391 L251.02832,168.050781 C251.02832,166.585938 251.467773,165.707031 252.34668,165.414062 L252.34668,165.414062 L254.104492,165.414062 C259.670898,165.414062 262.454102,175.082031 262.454102,194.417969 L262.454102,194.417969 L262.454102,194.857422 C262.454102,221.810547 259.231445,235.287109 252.786133,235.287109 Z M289.585938,241 L290.464844,240.560547 C290.464844,240.853516 290.611328,241 290.904297,241 L290.904297,241 L318.150391,241 C319.126953,241 319.859375,240.853516 320.347656,240.560547 C321.519531,240.560547 322.837891,235.873047 324.302734,226.498047 C323.814453,226.498047 323.521484,226.205078 323.423828,225.619141 L323.423828,225.619141 L322.544922,226.058594 C319.175781,232.503906 314.195312,235.726562 307.603516,235.726562 L307.603516,235.726562 L306.285156,235.726562 C305.455078,235.726562 304.869141,234.261719 304.527344,231.332031 C304.820312,228.353516 304.966797,226.009766 304.966797,224.300781 L304.966797,224.300781 L304.966797,209.798828 C304.966797,208.333984 304.820312,206.136719 304.527344,203.207031 C304.527344,199.691406 305.552734,197.933594 307.603516,197.933594 L307.603516,197.933594 L310.240234,197.933594 L312.876953,199.691406 C314.488281,205.257812 315.806641,208.041016 316.832031,208.041016 C317.710938,207.796875 318.150391,206.917969 318.150391,205.404297 L318.150391,205.404297 L318.150391,197.933594 L317.710938,195.736328 C318.003906,195.736328 318.150391,195.296875 318.150391,194.417969 L318.150391,194.417969 L318.150391,190.023438 L317.710938,187.826172 C318.003906,187.826172 318.150391,187.679688 318.150391,187.386719 L318.150391,187.386719 L317.710938,183.431641 L317.710938,182.992188 L316.392578,182.992188 L315.074219,184.310547 C314.097656,189.876953 311.900391,192.660156 308.482422,192.660156 C306.138672,192.367188 304.966797,191.78125 304.966797,190.902344 L304.966797,190.902344 L304.966797,167.171875 L305.40625,164.974609 L308.482422,164.974609 C314.732422,164.974609 318.980469,168.197266 321.226562,174.642578 L321.226562,174.642578 L322.984375,174.642578 C322.984375,174.349609 323.130859,173.910156 323.423828,173.324219 C322.349609,164.242188 321.324219,159.701172 320.347656,159.701172 L320.347656,159.701172 L287.388672,159.701172 C286.900391,159.701172 286.607422,159.994141 286.509766,160.580078 L286.509766,160.580078 L286.509766,161.019531 C288.365234,162.679688 289.390625,163.851562 289.585938,164.535156 L289.585938,164.535156 L289.585938,234.847656 C289.585938,236.458984 288.414062,238.070312 286.070312,239.681641 C286.509766,240.560547 286.949219,241 287.388672,241 L287.388672,241 L289.585938,241 Z M348.454102,158 L348.751953,158.060355 C351.678385,158.667122 355.973633,159.950669 361.637695,161.910995 L361.637695,161.910995 L362.956055,161.910995 L365.592773,159.73822 L366.911133,160.60733 L366.790059,161.947208 C366.284837,167.730927 366.032227,173.223219 366.032227,178.424084 C365.739258,179.00349 365.592773,179.438045 365.592773,179.727749 L365.592773,179.727749 L365.15332,179.727749 L365.132573,179.724172 C364.734983,179.597799 362.691117,176.122552 359.000977,169.298429 C355.924805,166.159977 352.702148,164.421757 349.333008,164.08377 C345.817383,164.08377 343.766602,166.256545 343.180664,170.602094 C343.180664,173.40256 349.918945,184.845841 363.395508,204.931937 C367.204102,211.739965 369.108398,217.38918 369.108398,221.879581 L369.108398,221.879581 L369.108398,225.356021 L369.104245,225.695081 C368.979636,230.765573 366.051333,235.142955 360.319336,238.827225 C356.852539,239.986038 353.922852,240.565445 351.530273,240.565445 C349.28418,240.565445 344.743164,239.551483 337.907227,237.52356 C335.563477,237.958115 334.391602,239.116928 334.391602,241 L334.391602,241 L332.633789,241 L332.647629,240.422272 C332.931371,228.564777 333.073242,221.804473 333.073242,220.141361 C333.512695,218.982548 333.952148,218.403141 334.391602,218.403141 C334.977539,218.741129 336.442383,221.927865 338.786133,227.963351 C342.008789,232.308901 345.817383,234.481675 350.211914,234.481675 C353.727539,234.481675 355.485352,232.019197 355.485352,227.094241 C355.485352,222.555556 351.969727,215.457824 344.938477,205.801047 C335.270508,192.426411 330.436523,182.141943 330.436523,174.947644 C330.436523,166.642816 334.538086,161.138453 342.741211,158.434555 C343.620117,158.434555 344.645508,158.289703 345.817383,158 C346.110352,158 346.256836,158.144852 346.256836,158.434555 L346.256836,158.434555 L348.454102,158 Z M86.4018692,144 L86.8315442,144.002995 C95.9459728,144.130764 101.734212,148.347157 104.196262,156.652174 C104.894081,159.756643 105.242991,162.568237 105.242991,165.086957 C105.242991,176.333333 99.3115265,184.768116 87.4485981,190.391304 C87.4485981,191.269928 91.1121495,192.148551 98.4392523,193.027174 C99.3696781,193.027174 100.765317,198.650362 102.626168,209.896739 C105.708204,229.226449 108.150571,238.891304 109.953271,238.891304 C110.65109,239.008454 111,239.359903 111,239.945652 C111,240.601691 110.696061,240.951578 110.088183,240.995314 L109.953271,241 L90.588785,241 L90.5511839,240.996981 C89.3283653,240.801752 87.4218959,231.137903 84.8317757,212.005435 C83.4361371,203.687802 82.3894081,198.943237 81.6915888,197.771739 C80.5188647,197.127415 79.2484135,196.778407 77.8802354,196.724713 L77.5046729,196.717391 L76.9813084,197.771739 L76.9813084,233.092391 L76.9859605,233.382532 C77.0728003,236.065001 78.3753963,238.033117 80.8937487,239.28688 L81.1682243,239.418478 L81.6915888,240.472826 L80.6448598,241 L55,241 L55,238.891304 L55.2401661,238.82941 C57.4437245,238.220752 58.583496,236.744665 58.6594808,234.401149 L58.6635514,234.146739 L58.6635514,150.150362 L58.5867824,149.866827 C57.9031566,147.450885 56.7670218,146.199773 55.1783781,146.113489 L55,146.108696 L55,144 L86.4018692,144 Z M80.6448598,149.798913 C78.256767,149.798913 77.0361863,152.346935 76.9831176,157.442978 L76.9813084,157.794384 L76.9813084,185.119565 L76.9865421,185.344493 C77.0528349,186.746775 77.7489097,187.726147 79.0747664,188.282609 C83.5362341,187.187931 85.8035374,181.899663 85.8766762,172.417805 L85.8785047,171.940217 L85.8785047,159.815217 L85.8766415,159.440809 C85.8120516,153.012879 84.0681244,149.798913 80.6448598,149.798913 Z" id="RHODES"></path>
                <path d="M84.8549805,99 C91.4956055,99 96.9155273,95.8736842 101.114746,89.6210526 C105.216309,81.1421053 107.26709,72.9 107.26709,64.8947368 L107.26709,64.8947368 L107.26709,52.9578947 C107.26709,49.8315789 106.974121,47.1315789 106.388184,44.8578947 C103.653809,26.9526316 96.6225586,18 85.2944336,18 C81.6323242,18 78.2631836,18.9947368 75.1870117,20.9842105 C66.690918,27.0947368 62.4428711,39.4578947 62.4428711,58.0736842 C62.4428711,61.8157895 62.8823242,67.5 63.7612305,75.1263158 C67.1791992,91.0421053 74.2104492,99 84.8549805,99 Z M85.2944336,93 C81.1928711,93 79.1420898,87.3902439 79.1420898,76.1707317 L79.1420898,76.1707317 L79.1420898,39.5670732 C79.6791992,29.1890244 81.5834961,24 84.8549805,24 L84.8549805,24 L85.7338867,24 C89.2495117,24 91.0073242,33.1158537 91.0073242,51.347561 L91.0073242,51.347561 L91.0073242,64.3902439 C91.0073242,83.4634146 89.1030273,93 85.2944336,93 Z M130.077637,99 C130.663574,99 130.956543,98.7070312 130.956543,98.1210938 C128.612793,96.4609375 127.440918,94.5566406 127.440918,92.4082031 L127.440918,92.4082031 L127.440918,51.9785156 C127.440918,51.4902344 127.733887,51.1972656 128.319824,51.0996094 L128.319824,51.0996094 L128.759277,51.0996094 C130.224121,55.3964844 135.937012,68.2871094 145.897949,89.7714844 C147.899902,95.9238281 149.950684,99 152.050293,99 L152.050293,99 L159.520996,99 L160.839355,98.1210938 C160.839355,97.828125 160.692871,97.3886719 160.399902,96.8027344 C160.692871,96.265625 160.839355,95.6796875 160.839355,95.0449219 L160.839355,95.0449219 L160.839355,22.9746094 C162.890137,20.5332031 163.915527,18.921875 163.915527,18.140625 L163.915527,18.140625 L149.413574,18.140625 C148.925293,18.140625 148.632324,18.4335938 148.534668,19.0195312 C150.878418,20.9726562 152.050293,22.7304688 152.050293,24.2929688 L152.050293,24.2929688 L152.050293,66.4804688 L151.171387,66.4804688 C143.554199,49.1953125 137.54834,35.8652344 133.153809,26.4902344 C131.395996,20.9238281 129.491699,18.140625 127.440918,18.140625 L127.440918,18.140625 L115.575684,18.140625 L115.575684,19.0195312 C117.919434,20.6796875 119.091309,23.3164062 119.091309,26.9296875 L119.091309,26.9296875 L119.091309,42.75 L118.651855,44.9472656 C118.944824,44.9472656 119.091309,45.3867188 119.091309,46.265625 L119.091309,46.265625 L119.091309,48.0234375 C119.091309,50.0742188 118.944824,51.2460938 118.651855,51.5390625 C118.944824,53.5410156 119.091309,55.1523438 119.091309,56.3730469 L119.091309,56.3730469 L119.091309,89.3320312 L118.651855,90.2109375 L119.091309,90.2109375 C119.091309,94.0683594 117.919434,96.7050781 115.575684,98.1210938 C115.575684,98.7070312 115.868652,99 116.45459,99 L116.45459,99 L130.077637,99 Z M176.618652,99 L177.497559,98.5605469 C177.497559,98.8535156 177.644043,99 177.937012,99 L177.937012,99 L178.815918,98.5605469 C178.815918,98.8535156 178.962402,99 179.255371,99 L179.255371,99 L181.452637,98.5605469 L181.452637,97.6816406 C179.450684,95.7285156 178.425293,94.4101562 178.376465,93.7265625 L178.376465,93.7265625 L181.23291,77.7597656 L195.734863,77.7597656 C197.053223,84.9863281 198.151855,90.4550781 199.030762,94.1660156 C198.200684,95.9238281 197.175293,96.8027344 195.95459,96.8027344 L195.95459,96.8027344 L195.95459,98.5605469 L198.151855,99 L211.335449,99 L214.411621,98.5605469 C214.411621,98.8535156 214.997559,99 216.169434,99 L216.169434,99 L217.04834,99 L217.04834,96.8027344 C216.560059,96.8027344 215.827637,96.3632812 214.851074,95.484375 L214.851074,95.484375 L202.98584,37.4765625 C201.081543,24.2929688 199.470215,17.7011719 198.151855,17.7011719 L198.151855,17.7011719 L183.210449,17.7011719 C182.722168,17.7011719 182.429199,17.9941406 182.331543,18.5800781 L182.331543,18.5800781 L182.331543,19.0195312 C183.796387,20.7773438 184.528809,21.8027344 184.528809,22.0957031 C183.942871,28.1015625 179.54834,50.5136719 171.345215,89.3320312 C171.345215,93.0917969 170.17334,95.7285156 167.82959,97.2421875 L167.82959,97.2421875 L167.82959,98.1210938 C167.82959,98.7070312 168.122559,99 168.708496,99 L168.708496,99 L176.618652,99 Z M194.196777,70.875 L182.770996,70.875 C186.286621,51.8808594 188.044434,41.9199219 188.044434,40.9921875 L188.044434,40.9921875 L189.362793,40.9921875 L194.196777,69.9960938 L194.196777,70.875 Z M247.695801,99 L247.695801,98.1210938 C245.64502,96.1191406 244.619629,94.5078125 244.619629,93.2871094 L244.619629,93.2871094 L244.619629,27.3691406 C244.619629,25.3183594 245.64502,24.2929688 247.695801,24.2929688 L247.695801,24.2929688 L249.893066,24.2929688 C250.918457,24.2929688 252.383301,25.0253906 254.287598,26.4902344 C258.92627,34.6445312 261.416504,38.7460938 261.758301,38.7949219 L261.758301,38.7949219 L262.637207,38.3554688 C261.758301,28.0039062 260.879395,21.1191406 260.000488,17.7011719 C256.58252,17.9941406 254.092285,18.140625 252.529785,18.140625 L252.529785,18.140625 L218.252441,18.140625 L213.85791,17.7011719 C212.881348,19.7519531 212.002441,26.4902344 211.221191,37.9160156 L211.221191,37.9160156 L211.660645,38.7949219 C211.953613,38.7949219 212.393066,38.6484375 212.979004,38.3554688 C216.98291,28.9804688 220.64502,24.2929688 223.965332,24.2929688 L223.965332,24.2929688 L226.162598,24.2929688 C228.066895,24.2929688 229.23877,25.4648438 229.678223,27.8085938 L229.678223,27.8085938 L229.23877,30.4453125 L229.23877,87.1347656 L229.678223,88.0136719 C229.385254,88.0136719 229.23877,88.1601562 229.23877,88.453125 L229.23877,88.453125 L229.23877,90.2109375 C229.23877,90.8457031 229.385254,91.4316406 229.678223,91.96875 C229.678223,94.1171875 228.506348,96.1679688 226.162598,98.1210938 L226.162598,98.1210938 L226.162598,99 L247.695801,99 Z M284.129395,99 C284.715332,99 285.008301,98.7070312 285.008301,98.1210938 C282.95752,96.4609375 281.932129,94.703125 281.932129,92.8476562 L281.932129,92.8476562 L281.932129,57.2519531 C281.932129,56.7636719 282.225098,56.4707031 282.811035,56.3730469 L282.811035,56.3730469 L295.115723,56.3730469 C295.70166,56.3730469 295.994629,56.6660156 295.994629,57.2519531 L295.994629,57.2519531 L295.994629,93.2871094 C295.45752,95.9238281 294.432129,97.2421875 292.918457,97.2421875 L292.918457,97.2421875 L292.918457,99 L314.45166,99 L314.45166,97.2421875 C312.64502,97.2421875 311.619629,96.0703125 311.375488,93.7265625 L311.375488,93.7265625 L311.375488,22.5351562 L314.45166,19.0195312 L314.45166,18.140625 L293.35791,18.140625 L292.479004,18.5800781 L295.994629,22.9746094 L295.994629,48.9023438 C295.994629,49.4882812 295.70166,49.78125 295.115723,49.78125 L295.115723,49.78125 L294.67627,49.78125 L293.797363,49.3417969 C293.797363,49.6347656 293.650879,49.78125 293.35791,49.78125 L293.35791,49.78125 L290.281738,49.78125 C289.646973,49.78125 289.061035,49.6347656 288.523926,49.3417969 C288.035645,49.6347656 287.449707,49.78125 286.766113,49.78125 L286.766113,49.78125 L284.129395,49.78125 L281.932129,49.3417969 L281.932129,23.8535156 C281.932129,22.2910156 283.104004,20.6796875 285.447754,19.0195312 C285.447754,18.53125 285.154785,18.2382812 284.568848,18.140625 L284.568848,18.140625 L263.475098,18.140625 L263.475098,19.4589844 C265.330566,21.1191406 266.355957,22.2910156 266.55127,22.9746094 L266.55127,22.9746094 L266.55127,93.2871094 C266.55127,95.5820312 265.525879,96.9003906 263.475098,97.2421875 L263.475098,97.2421875 L263.475098,99 L284.129395,99 Z M327.374512,99 L328.253418,98.5605469 C328.253418,98.8535156 328.399902,99 328.692871,99 L328.692871,99 L329.571777,98.5605469 C329.571777,98.8535156 329.718262,99 330.01123,99 L330.01123,99 L332.208496,98.5605469 L332.208496,97.6816406 C330.206543,95.7285156 329.181152,94.4101562 329.132324,93.7265625 L329.132324,93.7265625 L331.98877,77.7597656 L346.490723,77.7597656 C347.809082,84.9863281 348.907715,90.4550781 349.786621,94.1660156 C348.956543,95.9238281 347.931152,96.8027344 346.710449,96.8027344 L346.710449,96.8027344 L346.710449,98.5605469 L348.907715,99 L362.091309,99 L365.16748,98.5605469 C365.16748,98.8535156 365.753418,99 366.925293,99 L366.925293,99 L367.804199,99 L367.804199,96.8027344 C367.315918,96.8027344 366.583496,96.3632812 365.606934,95.484375 L365.606934,95.484375 L353.741699,37.4765625 C351.837402,24.2929688 350.226074,17.7011719 348.907715,17.7011719 L348.907715,17.7011719 L333.966309,17.7011719 C333.478027,17.7011719 333.185059,17.9941406 333.087402,18.5800781 L333.087402,18.5800781 L333.087402,19.0195312 C334.552246,20.7773438 335.284668,21.8027344 335.284668,22.0957031 C334.69873,28.1015625 330.304199,50.5136719 322.101074,89.3320312 C322.101074,93.0917969 320.929199,95.7285156 318.585449,97.2421875 L318.585449,97.2421875 L318.585449,98.1210938 C318.585449,98.7070312 318.878418,99 319.464355,99 L319.464355,99 L327.374512,99 Z M344.952637,70.875 L333.526855,70.875 C337.04248,51.8808594 338.800293,41.9199219 338.800293,40.9921875 L338.800293,40.9921875 L340.118652,40.9921875 L344.952637,69.9960938 L344.952637,70.875 Z M382.70459,18.140625 L382.844189,18.1449378 C384.841854,18.2685718 386.699618,21.0503374 388.41748,26.4902344 C392.812012,35.8652344 398.817871,49.1953125 406.435059,66.4804688 L406.435059,66.4804688 L407.313965,66.4804688 L407.313965,24.2929688 L407.30834,24.1045313 C407.21834,22.5895313 406.04834,20.8945312 403.79834,19.0195312 C403.895996,18.4335938 404.188965,18.140625 404.677246,18.140625 L404.677246,18.140625 L419.179199,18.140625 L419.17498,18.2308465 C419.101838,19.0423713 418.077854,20.6236256 416.103027,22.9746094 L416.103027,22.9746094 L416.103027,95.0449219 L416.096161,95.2806702 C416.064117,95.8254089 415.919922,96.3327637 415.663574,96.8027344 C415.956543,97.3886719 416.103027,97.828125 416.103027,98.1210938 L416.103027,98.1210938 L414.784668,99 L407.313965,99 L407.177103,98.9956387 C405.125214,98.8647996 403.120053,95.7900815 401.161621,89.7714844 C391.200684,68.2871094 385.487793,55.3964844 384.022949,51.0996094 L384.022949,51.0996094 L383.583496,51.0996094 L383.443115,51.1280924 C382.950765,51.2474501 382.70459,51.5309245 382.70459,51.9785156 L382.70459,51.9785156 L382.70459,92.4082031 L382.710215,92.6648438 C382.800215,94.7085938 383.970215,96.5273438 386.220215,98.1210938 C386.220215,98.7070312 385.927246,99 385.341309,99 L385.341309,99 L371.718262,99 L371.588246,98.9947994 C371.088986,98.9531943 370.839355,98.6619591 370.839355,98.1210938 C373.183105,96.7050781 374.35498,94.0683594 374.35498,90.2109375 L374.35498,90.2109375 L373.915527,90.2109375 L374.35498,89.3320312 L374.35498,56.3730469 L374.35238,56.084412 C374.331578,54.9021357 374.18596,53.3870192 373.915527,51.5390625 C374.208496,51.2460938 374.35498,50.0742188 374.35498,48.0234375 L374.35498,48.0234375 L374.35498,46.265625 L374.352738,46.0840143 C374.333307,45.3261818 374.18757,44.9472656 373.915527,44.9472656 L373.915527,44.9472656 L374.35498,42.75 L374.35498,26.9296875 L374.3508,26.5593834 C374.272768,23.1357248 373.102287,20.6224407 370.839355,19.0195312 L370.839355,19.0195312 L370.839355,18.140625 L382.70459,18.140625 Z M55,0 L55,1.58823529 L54.7233728,1.79342151 C52.4633465,3.51635921 51.3333333,5.56561086 51.3333333,7.94117647 L51.3333333,7.94117647 L51.3333333,64.5882353 L51.3311859,65.1451784 C51.1966108,82.5274434 44.7370092,93.4594427 31.952381,97.9411765 C28.1693122,98.6470588 25.3756614,99 23.5714286,99 C12.4550265,99 4.77248677,93.3529412 0.523809524,82.0588235 C0.174603175,80.1764706 0,78.5882353 0,77.2941176 L0,77.2941176 L0,72.5294118 L0.0616673262,72.0865244 C1.65171701,61.087665 6.86925647,55.5882353 15.7142857,55.5882353 C22,55.5882353 25.1428571,57.8823529 25.1428571,62.4705882 L25.1428571,62.4705882 L25.1428571,66.1764706 L25.1363904,66.2369281 C25.0631001,66.58878 24.366843,67.0980392 23.047619,67.7647059 L23.047619,67.7647059 L22,67.2352941 L21.4761905,67.2352941 L21.2036575,67.2385665 C15.7980446,67.3694611 13.0952381,71.4271938 13.0952381,79.4117647 C13.0952381,87 16.7619048,91.4117647 24.0952381,92.6470588 C29.973545,91.4117647 32.9417989,86.2941176 33,77.2941176 C33,76.1176471 33.1746032,75.2352941 33.5238095,74.6470588 C33.5238095,74.2941176 33.3492063,74.1176471 33,74.1176471 L33,74.1176471 L33.5238095,70.4117647 L33.5238095,9 L33.5188268,8.67979296 C33.4258158,5.71273694 32.0306513,3.34888438 29.3333333,1.58823529 L29.3333333,1.58823529 L29.3333333,0 L55,0 Z" id="JONATHAN"></path>
            </g>
        </g>
    </g>
</svg>