<?xml version="1.0" encoding="UTF-8"?>
<svg width="512px" height="240px" viewBox="0 0 512 240" version="1.1" xmlns="http://www.w3.org/2000/svg" xmlns:xlink="http://www.w3.org/1999/xlink">
    <title>logo-black</title>
    <g id="logo-black" stroke="none" stroke-width="1" fill="none" fill-rule="evenodd">
        <g id="Group-4" transform="translate(85.786325, 51.615385)" fill="#000000" fill-rule="nonzero">
            <g id="JONATHAN-RHODES">
                <g id="RHODES" transform="translate(0.000000, 75.081197)">
                    <path d="M13.6746211,49.6923077 L13.6746211,40.4696347 L23.9898755,40.4053653 L28.0067191,49.6923077 L37.8078175,49.6923077 L32.6983924,37.6417768 C34.0266287,36.8062734 35.226326,35.8208077 36.2974843,34.6853799 C37.3686426,33.5499521 38.2737714,32.3074085 39.0128706,30.9577491 C39.7519698,29.6080896 40.3196837,28.1834491 40.7160123,26.6838275 C41.1123409,25.1842058 41.3105051,23.6417379 41.3105051,22.0564236 C41.3105051,20.3639935 41.0909177,18.7358329 40.6517428,17.1719418 C40.2125679,15.6080507 39.5912961,14.1405638 38.7879274,12.7694812 C37.9845586,11.3983985 37.0205162,10.1504991 35.8957999,9.02578292 C34.7710837,7.90106671 33.5285401,6.93702424 32.1681691,6.13365552 C30.807798,5.33028679 29.345667,4.70901498 27.7817758,4.26984008 C26.2178847,3.83066518 24.5897241,3.61107772 22.897294,3.61107772 L22.897294,3.61107772 L4.45194812,3.61107772 L4.45194812,49.6923077 L13.6746211,49.6923077 Z M22.897294,31.2790966 L13.6746211,31.2790966 L13.6746211,12.8337507 L22.897294,12.8337507 C24.1612608,12.8337507 25.3502465,13.0747613 26.4642511,13.5567825 C27.5782558,14.0388038 28.5530098,14.6975661 29.3885133,15.5330696 C30.2240168,16.3685731 30.8827791,17.3486829 31.3648003,18.4733991 C31.8468216,19.5981153 32.0878322,20.7924568 32.0878322,22.0564236 C32.0878322,23.3203904 31.8468216,24.5147319 31.3648003,25.6394481 C30.8827791,26.7641643 30.2240168,27.7442742 29.3885133,28.5797776 C28.5530098,29.4152811 27.5782558,30.0740435 26.4642511,30.5560647 C25.3502465,31.0380859 24.1612608,31.2790966 22.897294,31.2790966 L22.897294,31.2790966 Z M69.736904,49.6923077 L69.736904,31.2790966 L88.1501152,31.2790966 L88.1501152,49.6923077 L97.3727881,49.6923077 L97.3727881,3.61107772 L88.1501152,3.61107772 L88.1501152,22.0564236 L69.736904,22.0564236 L69.736904,3.61107772 L60.5142311,3.61107772 L60.5142311,49.6923077 L69.736904,49.6923077 Z M140.420498,50.6884849 C142.605661,50.6884849 144.715843,50.404628 146.751043,49.8369141 C148.786244,49.2692002 150.682194,48.4658314 152.438894,47.4268079 C154.195594,46.3877843 155.802331,45.1398849 157.259106,43.6831096 C158.715882,42.2263344 159.958425,40.6142411 160.986737,38.8468299 C162.015049,37.0794187 162.813062,35.1834685 163.380776,33.1589794 C163.94849,31.1344902 164.232347,29.0296641 164.232347,26.8445012 C164.232347,24.6593383 163.94849,22.5491564 163.380776,20.5139557 C162.813062,18.4787549 162.015049,16.5828047 160.986737,14.8261051 C159.958425,13.0694055 158.715882,11.462668 157.259106,10.0058928 C155.802331,8.54911748 154.195594,7.30657385 152.438894,6.27826189 C150.682194,5.24994992 148.786244,4.45193699 146.751043,3.88422309 C144.715843,3.31650919 142.605661,3.03265224 140.420498,3.03265224 C138.235335,3.03265224 136.130509,3.31650919 134.10602,3.88422309 C132.08153,4.45193699 130.18558,5.24994992 128.418169,6.27826189 C126.650758,7.30657385 125.038665,8.54911748 123.581889,10.0058928 C122.125114,11.462668 120.877215,13.0694055 119.838191,14.8261051 C118.799168,16.5828047 117.995799,18.4787549 117.428085,20.5139557 C116.860371,22.5491564 116.576514,24.6593383 116.576514,26.8445012 C116.576514,29.0296641 116.860371,31.1344902 117.428085,33.1589794 C117.995799,35.1834685 118.799168,37.0794187 119.838191,38.8468299 C120.877215,40.6142411 122.125114,42.2263344 123.581889,43.6831096 C125.038665,45.1398849 126.650758,46.3877843 128.418169,47.4268079 C130.18558,48.4658314 132.08153,49.2692002 134.10602,49.8369141 C136.130509,50.404628 138.235335,50.6884849 140.420498,50.6884849 Z M140.420498,41.465812 C138.385297,41.465812 136.478635,41.080195 134.700512,40.308961 C132.92239,39.537727 131.36921,38.4879919 130.040974,37.1597556 C128.712738,35.8315193 127.663002,34.2836956 126.891768,32.5162844 C126.120535,30.7488732 125.734918,28.8582788 125.734918,26.8445012 C125.734918,24.8307236 126.120535,22.9294176 126.891768,21.1405833 C127.663002,19.3517489 128.712738,17.7985694 130.040974,16.4810447 C131.36921,15.16352 132.92239,14.1191406 134.700512,13.3479067 C136.478635,12.5766727 138.385297,12.1910557 140.420498,12.1910557 C142.434275,12.1910557 144.335581,12.5766727 146.124416,13.3479067 C147.91325,14.1191406 149.46643,15.16352 150.783954,16.4810447 C152.101479,17.7985694 153.145858,19.3517489 153.917092,21.1405833 C154.688326,22.9294176 155.073943,24.8307236 155.073943,26.8445012 C155.073943,28.8582788 154.688326,30.7488732 153.917092,32.5162844 C153.145858,34.2836956 152.101479,35.8315193 150.783954,37.1597556 C149.46643,38.4879919 147.91325,39.537727 146.124416,40.308961 C144.335581,41.080195 142.434275,41.465812 140.420498,41.465812 Z M197.318284,49.6923077 C199.439178,49.6923077 201.479734,49.4191623 203.439954,48.8728716 C205.400174,48.3265809 207.23721,47.5499911 208.951063,46.5431023 C210.664917,45.5362135 212.218096,44.3311604 213.610602,42.927943 C215.003108,41.5247257 216.202805,39.9715461 217.209694,38.2684044 C218.216583,36.5652628 218.993172,34.7335821 219.539463,32.7733624 C220.085754,30.8131427 220.358899,28.7725861 220.358899,26.6516927 C220.358899,24.5307993 220.085754,22.4902427 219.539463,20.530023 C218.993172,18.5698034 218.216583,16.7381227 217.209694,15.034981 C216.202805,13.3318393 215.003108,11.7786597 213.610602,10.3754424 C212.218096,8.972225 210.664917,7.76717192 208.951063,6.76028312 C207.23721,5.75339432 205.400174,4.97680455 203.439954,4.43051382 C201.479734,3.88422309 199.439178,3.61107772 197.318284,3.61107772 L197.318284,3.61107772 L183.436073,3.61107772 L183.436073,49.6923077 L197.318284,49.6923077 Z M197.318284,40.4696347 L192.723015,40.4696347 L192.723015,12.8337507 L197.318284,12.8337507 C199.224946,12.8337507 201.019136,13.1979445 202.700855,13.9263321 C204.382573,14.6547198 205.85006,15.6455412 207.103315,16.8987964 C208.356571,18.1520516 209.342036,19.6141827 210.059712,21.2851896 C210.777388,22.9561966 211.136226,24.7450309 211.136226,26.6516927 C211.136226,28.5583545 210.777388,30.3525446 210.059712,32.0342632 C209.342036,33.7159817 208.356571,35.1834685 207.103315,36.4367238 C205.85006,37.689979 204.382573,38.6754446 202.700855,39.3931207 C201.019136,40.1107967 199.224946,40.4696347 197.318284,40.4696347 L197.318284,40.4696347 Z M271.215353,49.6923077 L271.215353,40.4696347 L248.849568,40.4696347 L248.849568,31.2790966 L263.985034,31.2790966 L263.985034,22.0564236 L248.849568,22.0564236 L248.849568,12.8337507 L271.215353,12.8337507 L271.215353,3.61107772 L239.626895,3.61107772 L239.626895,49.6923077 L271.215353,49.6923077 Z M310.663971,49.6923077 C312.570632,49.6923077 314.364823,49.3281139 316.046541,48.5997262 C317.72826,47.8713386 319.195747,46.8805172 320.449002,45.627262 C321.702257,44.3740067 322.687723,42.9118757 323.405399,41.2408687 C324.123075,39.5698618 324.481913,37.7810274 324.481913,35.8743657 C324.481913,33.9677039 324.123075,32.1735137 323.405399,30.4917952 C322.687723,28.8100767 321.702257,27.3425898 320.449002,26.0893346 C319.195747,24.8360794 317.72826,23.8506138 316.046541,23.1329377 C314.364823,22.4152616 312.570632,22.0564236 310.663971,22.0564236 L310.663971,22.0564236 L301.441298,22.0564236 C300.798603,22.0564236 300.198754,21.9385962 299.641752,21.7029414 C299.084749,21.4672865 298.597372,21.1405833 298.179621,20.7228315 C297.761869,20.3050798 297.435166,19.812347 297.199511,19.2446331 C296.963856,18.6769192 296.846029,18.0717147 296.846029,17.4290198 C296.846029,16.7863248 296.963856,16.1864761 297.199511,15.6294738 C297.435166,15.0724715 297.761869,14.5850945 298.179621,14.1673427 C298.597372,13.749591 299.084749,13.4228877 299.641752,13.1872329 C300.198754,12.9515781 300.798603,12.8337507 301.441298,12.8337507 L301.441298,12.8337507 L322.585963,12.8337507 L322.585963,3.61107772 L301.441298,3.61107772 C299.534636,3.61107772 297.745802,3.97527155 296.074795,4.70365919 C294.403788,5.43204683 292.941657,6.42286826 291.688401,7.67612346 C290.435146,8.92937867 289.444325,10.3915097 288.715937,12.0625167 C287.98755,13.7335236 287.623356,15.522358 287.623356,17.4290198 C287.623356,19.3356815 287.98755,21.1298717 288.715937,22.8115902 C289.444325,24.4933087 290.435146,25.9607956 291.688401,27.2140508 C292.941657,28.467306 294.403788,29.4581274 296.074795,30.1865151 C297.745802,30.9149027 299.534636,31.2790966 301.441298,31.2790966 L301.441298,31.2790966 L310.663971,31.2790966 C311.306666,31.2790966 311.906514,31.396924 312.463517,31.6325788 C313.020519,31.8682336 313.507896,32.1949369 313.925648,32.6126886 C314.343399,33.0304404 314.670103,33.5178174 314.905758,34.0748197 C315.141412,34.631822 315.25924,35.2316707 315.25924,35.8743657 C315.25924,36.5170606 315.141412,37.1169093 314.905758,37.6739116 C314.670103,38.2309139 314.343399,38.7182909 313.925648,39.1360427 C313.507896,39.5537944 313.020519,39.8804977 312.463517,40.1161525 C311.906514,40.3518073 311.306666,40.4696347 310.663971,40.4696347 L310.663971,40.4696347 L290.194136,40.4696347 L290.194136,49.6923077 L310.663971,49.6923077 Z"></path>
                </g>
                <g id="JONATHAN" transform="translate(80.617026, 0.000000)">
                    <path d="M4.928,50.6921368 C7.32882051,50.6921368 9.58748718,49.6022906 11.704,47.4225983 C12.6516923,46.474906 13.5835897,45.2744957 14.4996923,43.8213675 C15.4157949,42.3682393 16.197641,40.9782906 16.8452308,39.6515214 C17.4928205,38.3247521 18.1562051,36.7926496 18.8353846,35.0552137 C19.5145641,33.3177778 20.0515897,31.8646496 20.4464615,30.6958291 C20.8413333,29.5270085 21.2756923,28.2002393 21.7495385,26.7155214 C22.2233846,25.2308034 22.8077949,23.5249573 23.5027692,21.5979829 C24.1977436,19.6710085 24.9401026,17.9256752 25.7298462,16.3619829 C26.5195897,14.7982906 27.2777436,13.6373675 28.0043077,12.8792137 C28.7308718,12.1210598 30.0260513,11.0312137 31.8898462,9.60967521 L31.8898462,9.60967521 L21.2283077,9.5622906 L19.0012308,9.5622906 C17.3901538,9.5622906 16.0396923,9.6728547 14.9498462,9.89398291 C13.86,10.1151111 12.7464615,10.6995214 11.6092308,11.6472137 C10.472,12.594906 9.60328205,13.9374701 9.00307692,15.674906 C8.93989744,15.9276239 8.90830769,16.0855726 8.90830769,16.1487521 C8.90830769,16.5594188 9.05046154,16.7647521 9.33476923,16.7647521 C9.39794872,16.7647521 9.46112821,16.7173675 9.52430769,16.6225983 C9.99815385,15.1378803 11.6803077,13.8900855 14.5707692,12.8792137 C17.4612308,11.8683419 20.0752821,11.362906 22.4129231,11.362906 C24.7505641,11.362906 26.3774359,11.489265 27.2935385,11.7419829 C26.3458462,12.0894701 25.2481026,13.1240342 24.0003077,14.8456752 C22.7525128,16.5673162 21.7021538,18.2810598 20.8492308,19.986906 C19.9963077,21.6927521 19.404,22.9563419 19.0723077,23.7776752 C18.7406154,24.5990085 18.5273846,25.1360342 18.4326154,25.3887521 C12.9675897,38.9091624 8.32389744,45.6693675 4.50153846,45.6693675 C3.83815385,45.6693675 3.2774359,45.4561368 2.81938462,45.0296752 C2.36133333,44.6032137 2.13230769,43.9477265 2.13230769,43.0632137 L2.13230769,43.0632137 L2.17969231,42.778906 C1.42153846,42.8736752 0.868717949,43.2843419 0.521230769,44.010906 C0.17374359,44.7374701 0,45.4324444 0,46.0958291 C0,47.4857778 0.450153846,48.5993162 1.35046154,49.4364444 C2.25076923,50.2735726 3.44328205,50.6921368 4.928,50.6921368 Z M29.5206154,43.0158291 C31.9846154,43.0158291 33.9984615,42.3682393 35.5621538,41.0730598 C37.1258462,39.7778803 38.4763077,38.0088547 39.6135385,35.7659829 C40.3716923,36.366188 41.2798974,36.6662906 42.3381538,36.6662906 C43.3964103,36.6662906 44.533641,36.1687521 45.7498462,35.1736752 C46.9660513,34.1785983 47.5741538,32.922906 47.5741538,31.4065983 C47.5741538,30.9327521 47.4793846,30.6958291 47.2898462,30.6958291 C47.1950769,30.6958291 47.1003077,30.7905983 47.0055385,30.9801368 C45.5524103,33.7284444 44.0045128,35.1025983 42.3618462,35.1025983 C41.4773333,35.1025983 40.7981538,34.770906 40.3243077,34.1075214 C40.9876923,32.433265 41.3193846,30.8379829 41.3193846,29.3216752 C41.3193846,25.3413675 39.4397949,23.3512137 35.6806154,23.3512137 C33.4377436,23.3512137 31.4081026,24.1093675 29.5916923,25.6256752 C27.7752821,27.1419829 26.4169231,28.9504957 25.5166154,31.0512137 C24.6163077,33.1519316 24.1661538,35.1894701 24.1661538,37.1638291 C24.1661538,39.138188 24.6636923,40.6071111 25.6587692,41.5705983 C26.6538462,42.5340855 27.9411282,43.0158291 29.5206154,43.0158291 Z M31.1790769,41.2152137 C29.5364103,41.1204444 28.7150769,40.1253675 28.7150769,38.2299829 C28.7150769,36.3345983 29.2836923,34.2180855 30.4209231,31.8804444 C32.5058462,27.6474188 34.6381538,25.530906 36.8178462,25.530906 C38.2077949,25.530906 38.9659487,26.3680342 39.0923077,28.0422906 L39.0923077,28.0422906 L38.808,28.0422906 C38.0182564,28.0422906 37.394359,28.2950085 36.9363077,28.8004444 C36.4782564,29.3058803 36.2492308,29.9850598 36.2492308,30.8379829 C36.2492308,32.2279316 36.7862564,33.3809573 37.8603077,34.2970598 C37.0705641,36.0344957 36.0991795,37.6218803 34.9461538,39.0592137 C33.7931282,40.496547 32.5374359,41.2152137 31.1790769,41.2152137 Z M57.9987692,42.9210598 C59.009641,42.9210598 60.1310769,42.4314188 61.3630769,41.4521368 C62.5950769,40.4728547 63.6928205,39.3277265 64.6563077,38.0167521 C65.6197949,36.7057778 66.6859487,35.0710085 67.8547692,33.1124444 C68.1706667,32.5754188 68.3286154,32.0147009 68.3286154,31.4302906 C68.3286154,30.8458803 68.2338462,30.5536752 68.0443077,30.5536752 C67.9811282,30.5536752 67.7442051,30.9011624 67.3335385,31.5961368 C66.9228718,32.2911111 66.4253333,33.104547 65.8409231,34.0364444 C65.2565128,34.9683419 64.7194872,35.7422906 64.2298462,36.3582906 C63.7402051,36.9742906 63.1242051,37.5665983 62.3818462,38.1352137 C61.6394872,38.7038291 61.0629744,38.9881368 60.6523077,38.9881368 C60.0836923,38.9881368 59.7993846,38.6090598 59.7993846,37.850906 C59.7993846,36.6504957 60.494359,34.281265 61.8843077,30.7432137 C62.5161026,29.1321368 62.9109744,28.0580855 63.0689231,27.5210598 C63.2268718,26.9840342 63.3058462,26.4470085 63.3058462,25.9099829 C63.3058462,24.2673162 62.4055385,23.4459829 60.6049231,23.4459829 C57.9197949,23.4459829 55.2504615,24.7095726 52.5969231,27.2367521 C52.9444103,26.0679316 53.1181538,25.2939829 53.1181538,24.914906 C53.1181538,24.5358291 52.9602051,24.2357265 52.6443077,24.0145983 C52.3284103,23.7934701 51.617641,23.682906 50.512,23.682906 L50.512,23.682906 L48.5218462,23.682906 C48.6166154,23.8408547 48.664,24.0777778 48.664,24.3936752 C48.664,25.6888547 48.0953846,27.9633162 46.9581538,31.2170598 C44.1782564,38.1668034 42.7883077,41.9733675 42.7883077,42.6367521 L42.7883077,42.6367521 L47.3846154,42.6367521 C47.4162051,42.5419829 47.5662564,41.9970598 47.8347692,41.0019829 C48.1032821,40.006906 48.3717949,39.0750085 48.6403077,38.2062906 C48.9088205,37.3375726 49.2721026,36.2556239 49.7301538,34.9604444 C50.1882051,33.665265 50.6857436,32.5201368 51.2227692,31.5250598 C51.7597949,30.5299829 52.36,29.5507009 53.0233846,28.5872137 C53.6867692,27.6237265 54.4212308,26.8813675 55.2267692,26.3601368 C56.0323077,25.838906 56.853641,25.5782906 57.6907692,25.5782906 C58.5278974,25.5782906 58.9464615,25.9099829 58.9464615,26.5733675 C58.9464615,26.889265 58.8832821,27.1893675 58.7569231,27.4736752 C56.3876923,33.665265 55.2030769,37.7877265 55.2030769,39.8410598 C55.2030769,41.8943932 56.1349744,42.9210598 57.9987692,42.9210598 Z M80.5064615,42.9210598 C83.1284103,42.9210598 86.3821538,39.6515214 90.2676923,33.1124444 C90.5835897,32.5754188 90.7415385,32.0147009 90.7415385,31.4302906 C90.7415385,30.8458803 90.6467692,30.5536752 90.4572308,30.5536752 C90.3624615,30.5536752 90.2518974,30.6642393 90.1255385,30.8853675 C87.2824615,36.2872137 84.9448205,38.9881368 83.1126154,38.9881368 C82.544,38.9881368 82.2596923,38.5774701 82.2596923,37.7561368 C82.2596923,36.1766496 83.0178462,33.6573675 84.5341538,30.1982906 C86.0504615,26.7392137 87.3298462,24.5832137 88.3723077,23.7302906 L88.3723077,23.7302906 L87.8984615,23.7302906 L85.5292308,23.682906 C84.8974359,23.682906 84.2182564,23.9514188 83.4916923,24.4884444 C82.7651282,25.0254701 82.2281026,25.657265 81.8806154,26.3838291 C81.5963077,25.3729573 81.0118974,24.6384957 80.1273846,24.1804444 C79.2428718,23.7223932 78.2951795,23.4933675 77.2843077,23.4933675 C75.1362051,23.4933675 73.1618462,24.2910085 71.3612308,25.8862906 C69.5606154,27.4815726 68.1785641,29.4164444 67.2150769,31.690906 C66.2515897,33.9653675 65.7698462,36.2082393 65.7698462,38.4195214 C65.7698462,41.3257778 66.8281026,42.778906 68.9446154,42.778906 C72.0088205,42.778906 75.3415385,39.5883419 78.9427692,33.2072137 C78.2793846,35.1025983 77.9476923,37.0295726 77.9476923,38.9881368 C77.9476923,41.6100855 78.8006154,42.9210598 80.5064615,42.9210598 Z M71.5033846,38.8459829 C70.7452308,38.8459829 70.3661538,38.3563419 70.3661538,37.3770598 C70.3661538,35.1025983 71.3454359,32.5201368 73.304,29.6296752 C75.2625641,26.7392137 77.2843077,25.2939829 79.3692308,25.2939829 C80.5380513,25.2939829 81.2804103,25.7994188 81.5963077,26.8102906 C80.7433846,28.2950085 79.337641,30.585265 77.3790769,33.6810598 C76.4945641,35.0710085 75.4994872,36.2793162 74.3938462,37.3059829 C73.2882051,38.3326496 72.3247179,38.8459829 71.5033846,38.8459829 Z M92.3052308,42.9210598 C93.2845128,42.9210598 94.374359,42.4314188 95.5747692,41.4521368 C96.7751795,40.4728547 97.8018462,39.4145983 98.6547692,38.2773675 C101.245128,34.8024957 102.556103,32.4648547 102.587692,31.2644444 C102.587692,30.7590085 102.492923,30.5062906 102.303385,30.5062906 C102.240205,30.5062906 101.482051,31.6751111 100.028923,34.0127521 C99.4603077,34.9920342 99.0022564,35.6870085 98.6547692,36.0976752 C97.1700513,37.9930598 95.8748718,38.9407521 94.7692308,38.9407521 C94.0110769,38.9407521 93.632,38.340547 93.632,37.1401368 C93.632,35.3711111 94.8797949,31.3908034 97.3753846,25.1992137 L97.3753846,25.1992137 L101.450462,25.1992137 C101.703179,25.1992137 102.003282,25.0017778 102.350769,24.606906 C102.698256,24.2120342 102.872,23.9356239 102.872,23.7776752 L102.872,23.7776752 L102.824615,23.7302906 L98.0387692,23.7302906 C99.9657436,19.3077265 101.703179,16.5594188 103.251077,15.4853675 C103.115692,15.5124444 102.539341,15.527917 101.522022,15.5317851 L100.976615,15.5327521 C98.6389744,15.5327521 96.3329231,18.265265 94.0584615,23.7302906 L94.0584615,23.7302906 L90.4572308,23.7302906 C90.3308718,23.7302906 90.1492308,23.9040342 89.9123077,24.2515214 C89.6753846,24.5990085 89.5569231,24.8438291 89.5569231,24.9859829 C89.5569231,25.1281368 89.6043077,25.1992137 89.6990769,25.1992137 L89.6990769,25.1992137 L92.8738462,25.1992137 C92.4,26.3680342 91.7918974,27.6632137 91.0495385,29.0847521 C90.3071795,30.5062906 89.7227692,31.6593162 89.2963077,32.5438291 C88.8698462,33.4283419 88.6566154,34.0680342 88.6566154,34.462906 C88.6566154,34.8577778 88.7197949,35.0552137 88.8461538,35.0552137 C88.9093333,35.0552137 89.1541538,34.7867009 89.5806154,34.2496752 C90.0070769,33.7126496 90.5204103,32.8913162 91.1206154,31.7856752 L91.1206154,31.7856752 L91.1206154,31.8330598 C90.1097436,34.5813675 89.6043077,37.0137778 89.6043077,39.1302906 C89.6043077,41.6574701 90.5046154,42.9210598 92.3052308,42.9210598 Z M112.964923,42.9210598 C115.650051,42.9210598 118.935385,39.6515214 122.820923,33.1124444 C123.136821,32.5122393 123.294769,31.9199316 123.294769,31.3355214 C123.294769,30.7511111 123.223692,30.458906 123.081538,30.458906 C122.939385,30.458906 122.820923,30.5694701 122.726154,30.7905983 C119.883077,36.2872137 117.513846,39.0355214 115.618462,39.0355214 C115.081436,39.0355214 114.812923,38.6406496 114.812923,37.850906 C114.812923,37.0611624 115.018256,36.002906 115.428923,34.6761368 C115.586872,34.1391111 115.808,33.4915214 116.092308,32.7333675 C116.376615,31.9752137 116.605641,31.3750085 116.779385,30.9327521 C116.953128,30.4904957 117.174256,29.9218803 117.442769,29.226906 C117.711282,28.5319316 117.956103,27.9159316 118.177231,27.378906 C118.398359,26.8418803 118.508923,26.2574701 118.508923,25.6256752 C118.508923,24.046188 117.608615,23.2564444 115.808,23.2564444 C114.891897,23.2564444 113.936308,23.4459829 112.941231,23.8250598 C111.946154,24.2041368 110.595692,25.0096752 108.889846,26.2416752 C113.186051,21.5032137 116.250256,17.3333675 118.082462,13.7321368 C118.935385,12.0262906 119.361846,10.6521368 119.361846,9.60967521 C119.361846,8.12495726 118.58,7.38259829 117.016308,7.38259829 C115.452615,7.38259829 113.967897,8.01439316 112.562154,9.27798291 C111.15641,10.5415726 109.908615,12.1131624 108.818769,13.9927521 C107.728923,15.8723419 106.615385,18.1783932 105.478154,20.910906 C104.340923,23.6434188 102.974667,27.4025983 101.379385,32.1884444 C99.7841026,36.9742906 98.56,40.4570598 97.7070769,42.6367521 L97.7070769,42.6367521 L102.303385,42.6367521 C102.587692,41.6574701 102.864103,40.7966496 103.132615,40.0542906 C103.401128,39.3119316 103.709128,38.3484444 104.056615,37.1638291 C104.404103,35.9792137 104.743692,34.9762393 105.075385,34.154906 C105.407077,33.3335726 105.849333,32.362188 106.402154,31.2407521 C106.954974,30.1193162 107.642051,29.1321368 108.463385,28.2792137 C109.284718,27.4262906 110.145538,26.7787009 111.045846,26.3364444 C111.946154,25.894188 112.585846,25.6730598 112.964923,25.6730598 C113.533538,25.6730598 113.817846,25.9889573 113.817846,26.6207521 C113.817846,27.0630085 113.596718,27.868547 113.154462,29.0373675 C111.164308,33.6494701 110.169231,37.2033162 110.169231,39.698906 C110.169231,41.8470085 111.101128,42.9210598 112.964923,42.9210598 Z M107.515692,25.9099829 C109.221538,21.3610598 110.966872,17.3333675 112.751692,13.826906 C114.536513,10.3204444 115.981744,8.56721368 117.087385,8.56721368 C117.498051,8.56721368 117.703385,8.87521368 117.703385,9.49121368 C117.703385,10.1072137 117.261128,11.4102906 116.376615,13.4004444 C114.797128,16.654188 111.843487,20.8240342 107.515692,25.9099829 Z M135.472615,42.9210598 C138.094564,42.9210598 141.348308,39.6515214 145.233846,33.1124444 C145.549744,32.5754188 145.707692,32.0147009 145.707692,31.4302906 C145.707692,30.8458803 145.612923,30.5536752 145.423385,30.5536752 C145.328615,30.5536752 145.218051,30.6642393 145.091692,30.8853675 C142.248615,36.2872137 139.910974,38.9881368 138.078769,38.9881368 C137.510154,38.9881368 137.225846,38.5774701 137.225846,37.7561368 C137.225846,36.1766496 137.984,33.6573675 139.500308,30.1982906 C141.016615,26.7392137 142.296,24.5832137 143.338462,23.7302906 L143.338462,23.7302906 L142.864615,23.7302906 L140.495385,23.682906 C139.86359,23.682906 139.18441,23.9514188 138.457846,24.4884444 C137.731282,25.0254701 137.194256,25.657265 136.846769,26.3838291 C136.562462,25.3729573 135.978051,24.6384957 135.093538,24.1804444 C134.209026,23.7223932 133.261333,23.4933675 132.250462,23.4933675 C130.102359,23.4933675 128.128,24.2910085 126.327385,25.8862906 C124.526769,27.4815726 123.144718,29.4164444 122.181231,31.690906 C121.217744,33.9653675 120.736,36.2082393 120.736,38.4195214 C120.736,41.3257778 121.794256,42.778906 123.910769,42.778906 C126.974974,42.778906 130.307692,39.5883419 133.908923,33.2072137 C133.245538,35.1025983 132.913846,37.0295726 132.913846,38.9881368 C132.913846,41.6100855 133.766769,42.9210598 135.472615,42.9210598 Z M126.469538,38.8459829 C125.711385,38.8459829 125.332308,38.3563419 125.332308,37.3770598 C125.332308,35.1025983 126.31159,32.5201368 128.270154,29.6296752 C130.228718,26.7392137 132.250462,25.2939829 134.335385,25.2939829 C135.504205,25.2939829 136.246564,25.7994188 136.562462,26.8102906 C135.709538,28.2950085 134.303795,30.585265 132.345231,33.6810598 C131.460718,35.0710085 130.465641,36.2793162 129.36,37.3059829 C128.254359,38.3326496 127.290872,38.8459829 126.469538,38.8459829 Z M156.037538,42.9210598 C157.04841,42.9210598 158.169846,42.4314188 159.401846,41.4521368 C160.633846,40.4728547 161.73159,39.3277265 162.695077,38.0167521 C163.658564,36.7057778 164.724718,35.0710085 165.893538,33.1124444 C166.209436,32.5754188 166.367385,32.0147009 166.367385,31.4302906 C166.367385,30.8458803 166.272615,30.5536752 166.083077,30.5536752 C166.019897,30.5536752 165.782974,30.9011624 165.372308,31.5961368 C164.961641,32.2911111 164.464103,33.104547 163.879692,34.0364444 C163.295282,34.9683419 162.758256,35.7422906 162.268615,36.3582906 C161.778974,36.9742906 161.162974,37.5665983 160.420615,38.1352137 C159.678256,38.7038291 159.101744,38.9881368 158.691077,38.9881368 C158.122462,38.9881368 157.838154,38.6090598 157.838154,37.850906 C157.838154,36.6504957 158.533128,34.281265 159.923077,30.7432137 C160.554872,29.1321368 160.949744,28.0580855 161.107692,27.5210598 C161.265641,26.9840342 161.344615,26.4470085 161.344615,25.9099829 C161.344615,24.2673162 160.444308,23.4459829 158.643692,23.4459829 C155.958564,23.4459829 153.289231,24.7095726 150.635692,27.2367521 C150.983179,26.0679316 151.156923,25.2939829 151.156923,24.914906 C151.156923,24.5358291 150.998974,24.2357265 150.683077,24.0145983 C150.367179,23.7934701 149.65641,23.682906 148.550769,23.682906 L148.550769,23.682906 L146.560615,23.682906 C146.655385,23.8408547 146.702769,24.0777778 146.702769,24.3936752 C146.702769,25.6888547 146.134154,27.9633162 144.996923,31.2170598 C142.217026,38.1668034 140.827077,41.9733675 140.827077,42.6367521 L140.827077,42.6367521 L145.423385,42.6367521 C145.454974,42.5419829 145.605026,41.9970598 145.873538,41.0019829 C146.142051,40.006906 146.410564,39.0750085 146.679077,38.2062906 C146.94759,37.3375726 147.310872,36.2556239 147.768923,34.9604444 C148.226974,33.665265 148.724513,32.5201368 149.261538,31.5250598 C149.798564,30.5299829 150.398769,29.5507009 151.062154,28.5872137 C151.725538,27.6237265 152.46,26.8813675 153.265538,26.3601368 C154.071077,25.838906 154.89241,25.5782906 155.729538,25.5782906 C156.566667,25.5782906 156.985231,25.9099829 156.985231,26.5733675 C156.985231,26.889265 156.922051,27.1893675 156.795692,27.4736752 C154.426462,33.665265 153.241846,37.7877265 153.241846,39.8410598 C153.241846,41.8943932 154.173744,42.9210598 156.037538,42.9210598 Z" id="Jonathan"></path>
                </g>
            </g>
        </g>
    </g>
</svg>