<?xml version="1.0" encoding="UTF-8"?>
<svg width="1100px" height="40px" viewBox="0 0 1100 40" version="1.1" xmlns="http://www.w3.org/2000/svg" xmlns:xlink="http://www.w3.org/1999/xlink">
    <title>separator</title>
    <defs>
        <filter color-interpolation-filters="auto" id="filter-1">
            <feColorMatrix in="SourceGraphic" type="matrix" values="0 0 0 0 0.025112 0 0 0 0 0.238706 0 0 0 0 0.189730 0 0 0 1.000000 0"></feColorMatrix>
        </filter>
    </defs>
    <g id="separator" stroke="none" stroke-width="1" fill="none" fill-rule="evenodd">
        <polygon id="Fill-5" fill="#063D30" transform="translate(247.308028, 19.875590) rotate(-360.000000) translate(-247.308028, -19.875590) " points="-3.41060513e-13 19.3762462 494.616056 19 492.616056 20.7511799"></polygon>
        <polygon id="Fill-5" fill="#063D30" transform="translate(852.308028, 19.875590) scale(-1, 1) rotate(-360.000000) translate(-852.308028, -19.875590) " points="605 19.3762462 1099.61606 19 1097.61606 20.7511799"></polygon>
        <g id="Bird" transform="translate(540.933333, 7.000000)" filter="url(#filter-1)">
            <g>
                <path d="M1.13339956,3.54523753 C1.13339956,3.54523753 1.0964411,3.09802871 1.0720972,2.58187389 L1.0720972,2.57017396 C0.902243201,2.65071543 0.37995598,2.59346935 0.37995598,2.59346935 C0.185204813,2.68508396 0.136738329,2.9834321 0.136738329,2.9834321 C-0.373376943,2.24926168 0.708045304,1.43496765 0.708045304,1.43496765 C0.793027632,0.643551151 1.89835116,0.219115404 2.28718957,0.127396333 C2.67602798,0.0472727251 3.06486639,-0.044759737 3.05269444,0.0242907255 C3.05269444,0.0931322607 2.91869236,0.13909626 2.90674172,0.150482796 L2.91869236,0.150482796 C3.40512766,0.13909626 3.78135151,0.25348394 4.06086369,0.437235473 C4.72888233,0.781025294 5.06903294,1.40059911 5.3001893,2.18052461 C5.62772535,3.28125792 6.64861982,4.49711017 7.40151013,5.05902006 C8.167015,5.60964788 11.5804718,7.18078094 12.7712203,10.7249187 C12.7712203,10.7249187 14.2166944,11.8370385 14.0832456,12.8233842 C14.0832456,12.8233842 14.9700274,13.6376782 14.6904045,14.2686385 C14.6904045,14.2686385 15.9297301,15.8629625 17.0840734,16.9063453 C18.2256915,17.938446 16.8772609,18.2826537 16.0268844,17.6290247 C16.0268844,17.6290247 17.5456115,19.0625792 17.60625,19.7622766 C17.6669991,20.4616607 16.4398454,20.0373294 16.4398454,20.0373294 C16.4398454,20.0373294 17.0597295,20.7256403 16.2698807,20.7026583 C15.480032,20.6912717 12.6496115,16.9750824 12.1880733,16.6081016 C12.1880733,16.6081016 12.1394962,17.0782925 11.5438453,16.9293273 C10.9488584,16.7688712 9.70953277,15.2205112 9.70953277,15.2205112 C9.70953277,15.2205112 8.5556321,15.2548797 8.06975007,14.7617069 C8.06975007,14.7617069 8.02128359,15.3236168 7.65678908,15.679211 C7.29229456,16.0348052 7.37716623,16.6194882 7.37716623,16.6194882 C7.37716623,16.6194882 7.40151013,16.7918532 7.5839787,16.8262217 C7.7538327,16.8604858 8.21548149,16.7345026 8.25177602,16.9865734 C8.70136352,17.0209419 9.12660712,17.078188 9.46686839,17.1474474 C9.46686839,17.1474474 10.3658221,17.2848171 10.3172449,18.1564616 C10.2930117,18.5120558 10.2566065,19.5785251 10.2323733,20.7025538 C10.9365758,20.7025538 11.6657861,20.7369223 12.1638401,20.8400279 C12.1638401,20.8400279 12.7589377,20.931747 12.7225325,21.5168478 C12.6861273,22.0901443 12.6133169,23.9827119 12.6133169,23.9827119 L8.3980607,23.9827119 C8.05768878,23.9827119 7.89945346,24.0285715 7.83881502,23.9709075 L4.48599664,23.9709075 L2.87000457,23.9709075 C2.94311002,20.2091024 2.99179782,18.2020426 3.01606794,17.9497281 C3.08887832,17.2504485 3.11322222,17.1817115 3.82970733,17.0780835 C4.04869174,17.0438195 4.31558937,17.0208375 4.6195561,16.9979599 C4.69225583,16.8603813 4.87483505,16.6881208 5.2635628,16.6881208 C5.91940949,16.6767343 6.00428116,16.7229072 6.19903233,16.6423657 C6.38105828,16.5620332 6.45397931,14.9906912 6.3082479,14.6813744 C6.16251648,14.3716397 2.37195059,11.8025655 1.78902494,9.10761268 C1.78902494,9.10761268 1.82531947,9.44032936 1.55786858,9.42873389 C1.30303225,9.40554297 0.768573082,8.35056472 1.03558136,6.63025759 C1.29097096,4.90995045 1.13339956,3.54523753 1.13339956,3.54523753 L1.13339956,3.54523753 Z" id="Path" fill="#000000" fill-rule="nonzero"></path>
            </g>
        </g>
    </g>
</svg>