<?xml version="1.0" encoding="UTF-8"?>
<svg width="636px" height="462px" viewBox="0 0 636 462" version="1.1" xmlns="http://www.w3.org/2000/svg" xmlns:xlink="http://www.w3.org/1999/xlink">
    <title>patch</title>
    <defs>
        <path d="M376.969617,10.0816849 L632.969608,102.257852 C643.899647,106.193356 651.186604,116.562047 651.186604,128.179014 L651.186604,307.089468 C651.186604,318.706435 643.899647,329.075127 632.969608,333.010631 L376.969617,425.186798 C358.871809,431.703152 339.06789,431.703152 320.970082,425.186798 L64.97009,333.010631 C54.040052,329.075127 46.7530946,318.706435 46.7530946,307.089468 L46.7530946,128.179014 C46.7530946,116.562047 54.040052,106.193356 64.97009,102.257852 L320.970082,10.0816849 C339.06789,3.56533094 358.871809,3.56533094 376.969617,10.0816849 Z" id="path-1"></path>
        <rect id="path-3" x="0" y="0" width="733.976703" height="467"></rect>
        <path d="M393.499768,28.4474436 L649.499759,120.62361 C660.429797,124.559114 667.716755,134.927806 667.716755,146.544773 L667.716755,325.455227 C667.716755,337.072194 660.429797,347.440886 649.499759,351.37639 L393.499768,443.552556 C375.40196,450.06891 355.59804,450.06891 337.500232,443.552556 L81.5002408,351.37639 C70.5702027,347.440886 63.2832454,337.072194 63.2832454,325.455227 L63.2832454,146.544773 C63.2832454,134.927806 70.5702027,124.559114 81.5002408,120.62361 L337.500232,28.4474436 C355.59804,21.9310897 375.40196,21.9310897 393.499768,28.4474436 Z" id="path-5"></path>
    </defs>
    <g id="patch" stroke="none" stroke-width="1" fill="none" fill-rule="evenodd">
        <rect fill="#FFFFFF" x="0" y="0" width="636" height="462"></rect>
        <g id="Group" transform="translate(-61.000000, -24.000000)">
            <g transform="translate(13.000000, 18.000000)">
                <path d="M403.993995,14.3501678 L658.129948,109.089453 C672.502061,114.44723 682.032285,128.170907 682.032285,143.509205 L682.032285,328.490795 C682.032285,343.829093 672.502061,357.55277 658.129948,362.910547 L403.993995,457.649832 C379.165884,466.905498 351.834116,466.905498 327.006005,457.649832 L72.8700516,362.910547 C58.4979389,357.55277 48.9677149,343.829093 48.9677149,328.490795 L48.9677149,143.509205 C48.9677149,128.170907 58.4979389,114.44723 72.8700516,109.089453 L327.006005,14.3501678 C351.834116,5.09450187 379.165884,5.09450187 403.993995,14.3501678 Z" id="Badge" fill="#370B11"></path>
                <g id="Masked" transform="translate(16.530151, 18.365759)">
                    <mask id="mask-2" fill="white">
                        <use xlink:href="#path-1"></use>
                    </mask>
                    <g id="Polygon-Mask"></g>
                    <g id="Logo-compleet" mask="url(#mask-2)">
                        <g transform="translate(-17.018502, -18.365759)">
                            <mask id="mask-4" fill="white">
                                <use xlink:href="#path-3"></use>
                            </mask>
                            <use id="Rectangle" stroke="none" fill="#063D30" fill-rule="evenodd" xlink:href="#path-3"></use>
                            <g id="Emblem" stroke="none" stroke-width="1" fill="none" fill-rule="evenodd" mask="url(#mask-4)">
                                <g transform="translate(-76.011649, 67.000000)">
                                    <path d="M392.219396,32.2025742 C392.219396,32.2025742 391.902461,28.1404274 391.693701,23.4520212 L391.693701,23.3457468 C390.237129,24.0773318 385.758288,23.5573466 385.758288,23.5573466 C384.088212,24.3895127 383.672591,27.0995083 383.672591,27.0995083 C379.29813,20.4307936 388.571797,13.0342895 388.571797,13.0342895 C389.300558,5.84558962 398.77919,1.99029825 402.113649,1.15718336 C405.448108,0.42939392 408.782567,-0.406567611 408.678187,0.220640756 C408.678187,0.845951368 407.529061,1.26345769 407.426579,1.3668854 L407.529061,1.3668854 C411.700456,1.26345769 414.926739,2.30247912 417.323678,3.97155555 C423.05223,7.09431309 425.96917,12.7221086 427.951436,19.8064318 C430.760201,29.8047595 439.514817,40.8487507 445.97118,45.9527655 C452.535718,50.9543015 481.8076,65.2254269 492.018788,97.4180113 C492.018788,97.4180113 504.414359,107.519767 503.269977,116.479073 C503.269977,116.479073 510.874518,123.875577 508.47663,129.6068 C508.47663,129.6068 519.104388,144.088576 529.003385,153.56597 C538.793258,162.940885 527.229878,166.067438 519.937528,160.130308 C519.937528,160.130308 532.961276,173.151761 533.481277,179.507346 C534.002227,185.860084 523.478849,182.005742 523.478849,182.005742 C523.478849,182.005742 528.794626,188.257899 522.021328,188.049146 C515.24803,187.945718 490.975939,154.190332 487.018048,150.856923 C487.018048,150.856923 486.601478,155.127823 481.493512,153.774723 C476.391239,152.317247 465.763481,138.252977 465.763481,138.252977 C465.763481,138.252977 455.868279,138.565157 451.701629,134.085504 C451.701629,134.085504 451.286007,139.189519 448.160308,142.4195 C445.034608,145.649481 445.76242,150.960351 445.76242,150.960351 C445.76242,150.960351 445.97118,152.526 447.535927,152.838181 C448.992499,153.149413 452.951339,152.005066 453.262581,154.294708 C457.11799,154.606889 460.764639,155.126874 463.682528,155.75598 C463.682528,155.75598 471.391448,157.003755 470.974878,164.921193 C470.767067,168.151174 470.454877,177.83827 470.247066,188.048197 C476.28591,188.048197 482.539207,188.360378 486.810237,189.29692 C486.810237,189.29692 491.913459,190.130035 491.601269,195.444701 C491.289078,200.652144 490.664697,217.842967 490.664697,217.842967 L454.517036,217.842967 C451.598198,217.842967 450.241261,218.259524 449.72126,217.735743 L420.969379,217.735743 L407.111542,217.735743 C407.738453,183.566014 408.155972,165.33522 408.364099,163.043364 C408.98848,156.691574 409.197239,156.067212 415.341412,155.125925 C417.219299,154.814693 419.508062,154.60594 422.11471,154.398136 C422.738142,153.148464 424.303838,151.583764 427.637348,151.583764 C433.26152,151.480336 433.989331,151.89974 435.659408,151.168155 C437.22036,150.438468 437.845689,136.165445 436.595979,133.355817 C435.346268,130.542394 402.840511,107.206637 397.84167,82.7274818 C397.84167,82.7274818 398.152911,85.7496583 395.859403,85.6443329 C393.67407,85.4336819 389.09085,75.8509629 391.380562,60.2248397 C393.570639,44.5987166 392.219396,32.2025742 392.219396,32.2025742 L392.219396,32.2025742 Z" id="Path-2" fill="#E1B26B" fill-rule="nonzero"></path>
                                    <rect id="Rectangle" fill="#E1B26B" fill-rule="evenodd" x="0" y="247" width="886" height="282"></rect>
                                    <g id="JONATHAN-RHODES" stroke-width="1" fill="none" fill-rule="evenodd" transform="translate(205.970085, 195.457265)">
                                        <g id="RHODES">
                                            <polygon id="Rectangle" fill="#E1B26B" points="-4.89094283e-13 3.45299145 473.059829 3.45299145 473.059829 101.863248 -4.89094283e-13 101.863248"></polygon>
                                            <path d="M40.3812851,84.5982906 L40.3812851,72.5010183 L53.9116837,72.4167167 L59.1805305,84.5982906 L72.0365168,84.5982906 L65.3345436,68.7917501 C67.0767756,67.69583 68.6504045,66.4032062 70.0554304,64.9138789 C71.4604562,63.4245515 72.647703,61.7947216 73.6171708,60.024389 C74.5866386,58.2540565 75.3313023,56.3853722 75.8511619,54.418336 C76.3710214,52.4512999 76.6309512,50.4280627 76.6309512,48.3486245 C76.6309512,46.1286837 76.3429209,43.9930444 75.7668603,41.9417067 C75.1907997,39.890369 74.3758847,37.9654837 73.3221154,36.1670506 C72.268346,34.3686176 71.0038228,32.7317625 69.5285457,31.2564854 C68.0532686,29.7812083 66.4234386,28.516685 64.6390558,27.4629157 C62.854673,26.4091463 60.9368128,25.5942313 58.8854751,25.0181707 C56.8341374,24.4421102 54.6984982,24.1540799 52.4785574,24.1540799 L52.4785574,24.1540799 L28.2840128,24.1540799 L28.2840128,84.5982906 L40.3812851,84.5982906 Z M52.4785574,60.4458968 L40.3812851,60.4458968 L40.3812851,36.2513522 L52.4785574,36.2513522 C54.1364878,36.2513522 55.6960665,36.567483 57.1572933,37.1997446 C58.6185202,37.8320062 59.8970937,38.6960971 60.9930138,39.7920172 C62.088934,40.8879374 62.9530248,42.173536 63.5852865,43.6488131 C64.2175481,45.1240902 64.5336789,46.690694 64.5336789,48.3486245 C64.5336789,50.0065549 64.2175481,51.5731587 63.5852865,53.0484358 C62.9530248,54.5237129 62.088934,55.8093116 60.9930138,56.9052317 C59.8970937,58.0011518 58.6185202,58.8652427 57.1572933,59.4975043 C55.6960665,60.129766 54.1364878,60.4458968 52.4785574,60.4458968 L52.4785574,60.4458968 Z M113.917526,84.5982906 L113.917526,60.4458968 L138.06992,60.4458968 L138.06992,84.5982906 L150.167193,84.5982906 L150.167193,24.1540799 L138.06992,24.1540799 L138.06992,48.3486245 L113.917526,48.3486245 L113.917526,24.1540799 L101.820254,24.1540799 L101.820254,84.5982906 L113.917526,84.5982906 Z M206.63237,85.9049646 C209.498623,85.9049646 212.266524,85.5326328 214.936073,84.7879691 C217.605622,84.0433054 220.092517,82.989536 222.39676,81.626661 C224.701002,80.2637859 226.808541,78.6269309 228.719376,76.7160958 C230.630211,74.8052606 232.260041,72.6906968 233.608866,70.3724042 C234.957691,68.0541116 236.004435,65.5672159 236.749099,62.9117171 C237.493762,60.2562183 237.866094,57.4953425 237.866094,54.6290899 C237.866094,51.7628372 237.493762,48.9949363 236.749099,46.3253873 C236.004435,43.6558382 234.957691,41.1689425 233.608866,38.8647002 C232.260041,36.5604578 230.630211,34.4529191 228.719376,32.542084 C226.808541,30.6312489 224.701002,29.0014189 222.39676,27.6525942 C220.092517,26.3037694 217.605622,25.2570251 214.936073,24.5123614 C212.266524,23.7676978 209.498623,23.3953659 206.63237,23.3953659 C203.766117,23.3953659 201.005242,23.7676978 198.349743,24.5123614 C195.694244,25.2570251 193.207348,26.3037694 190.889056,27.6525942 C188.570763,29.0014189 186.456199,30.6312489 184.545364,32.542084 C182.634529,34.4529191 180.997674,36.5604578 179.634799,38.8647002 C178.271924,41.1689425 177.218155,43.6558382 176.473491,46.3253873 C175.728827,48.9949363 175.356495,51.7628372 175.356495,54.6290899 C175.356495,57.4953425 175.728827,60.2562183 176.473491,62.9117171 C177.218155,65.5672159 178.271924,68.0541116 179.634799,70.3724042 C180.997674,72.6906968 182.634529,74.8052606 184.545364,76.7160958 C186.456199,78.6269309 188.570763,80.2637859 190.889056,81.626661 C193.207348,82.989536 195.694244,84.0433054 198.349743,84.7879691 C201.005242,85.5326328 203.766117,85.9049646 206.63237,85.9049646 Z M206.63237,73.8076923 C203.962821,73.8076923 201.461875,73.301883 199.129532,72.2902644 C196.797189,71.2786458 194.759902,69.9017205 193.01767,68.1594885 C191.275438,66.4172565 189.898513,64.3869942 188.886894,62.0687016 C187.875275,59.750409 187.369466,57.2705384 187.369466,54.6290899 C187.369466,51.9876413 187.875275,49.4937205 188.886894,47.1473274 C189.898513,44.8009343 191.275438,42.7636468 193.01767,41.0354651 C194.759902,39.3072833 196.797189,37.9373831 199.129532,36.9257646 C201.461875,35.914146 203.962821,35.4083367 206.63237,35.4083367 C209.273819,35.4083367 211.767739,35.914146 214.114133,36.9257646 C216.460526,37.9373831 218.497813,39.3072833 220.225995,41.0354651 C221.954177,42.7636468 223.324077,44.8009343 224.335695,47.1473274 C225.347314,49.4937205 225.853123,51.9876413 225.853123,54.6290899 C225.853123,57.2705384 225.347314,59.750409 224.335695,62.0687016 C223.324077,64.3869942 221.954177,66.4172565 220.225995,68.1594885 C218.497813,69.9017205 216.460526,71.2786458 214.114133,72.2902644 C211.767739,73.301883 209.273819,73.8076923 206.63237,73.8076923 Z M281.264532,84.5982906 C284.046483,84.5982906 286.723057,84.240009 289.294254,83.5234458 C291.865451,82.8068827 294.275071,81.788239 296.523112,80.4675147 C298.771153,79.1467904 300.808441,77.5661364 302.634974,75.7255526 C304.461508,73.8849687 306.035137,71.8476813 307.355861,69.6136902 C308.676585,67.3796992 309.695229,64.977105 310.411792,62.4059078 C311.128355,59.8347105 311.486637,57.1581364 311.486637,54.3761852 C311.486637,51.5942341 311.128355,48.9176599 310.411792,46.3464627 C309.695229,43.7752654 308.676585,41.3726713 307.355861,39.1386802 C306.035137,36.9046892 304.461508,34.8674017 302.634974,33.0268179 C300.808441,31.1862341 298.771153,29.60558 296.523112,28.2848558 C294.275071,26.9641315 291.865451,25.9454878 289.294254,25.2289246 C286.723057,24.5123614 284.046483,24.1540799 281.264532,24.1540799 L281.264532,24.1540799 L263.055397,24.1540799 L263.055397,84.5982906 L281.264532,84.5982906 Z M281.264532,72.5010183 L275.236971,72.5010183 L275.236971,36.2513522 L281.264532,36.2513522 C283.765478,36.2513522 286.118896,36.7290609 288.324786,37.6844785 C290.530677,38.6398961 292.455562,39.9395449 294.099442,41.5834251 C295.743323,43.2273054 297.035946,45.1451656 297.977314,47.3370059 C298.918681,49.5288462 299.389365,51.8752393 299.389365,54.3761852 C299.389365,56.8771312 298.918681,59.2305494 297.977314,61.43644 C297.035946,63.6423305 295.743323,65.5672159 294.099442,67.2110961 C292.455562,68.8549763 290.530677,70.1476 288.324786,71.0889673 C286.118896,72.0303346 283.765478,72.5010183 281.264532,72.5010183 L281.264532,72.5010183 Z M378.194453,84.5982906 L378.194453,72.5010183 L348.857514,72.5010183 L348.857514,60.4458968 L368.710529,60.4458968 L368.710529,48.3486245 L348.857514,48.3486245 L348.857514,36.2513522 L378.194453,36.2513522 L378.194453,24.1540799 L336.760241,24.1540799 L336.760241,84.5982906 L378.194453,84.5982906 Z M429.938744,84.5982906 C432.43969,84.5982906 434.793108,84.1205818 436.998998,83.1651643 C439.204889,82.2097467 441.129774,80.9100978 442.773655,79.2662176 C444.417535,77.6223374 445.710158,75.7044772 446.651526,73.5126369 C447.592893,71.3207966 448.063577,68.9744035 448.063577,66.4734575 C448.063577,63.9725116 447.592893,61.6190933 446.651526,59.4132028 C445.710158,57.2073123 444.417535,55.2824269 442.773655,53.6385467 C441.129774,51.9946665 439.204889,50.7020427 436.998998,49.7606754 C434.793108,48.8193081 432.43969,48.3486245 429.938744,48.3486245 L429.938744,48.3486245 L417.841471,48.3486245 C416.998456,48.3486245 416.211641,48.1940716 415.481028,47.8849659 C414.750415,47.5758603 414.111128,47.1473274 413.563168,46.5993673 C413.015208,46.0514073 412.586675,45.4050954 412.277569,44.6604317 C411.968463,43.915768 411.813911,43.1219284 411.813911,42.2789129 C411.813911,41.4358974 411.968463,40.649083 412.277569,39.9184696 C412.586675,39.1878561 413.015208,38.5485694 413.563168,38.0006093 C414.111128,37.4526492 414.750415,37.0241164 415.481028,36.7150107 C416.211641,36.405905 416.998456,36.2513522 417.841471,36.2513522 L417.841471,36.2513522 L445.576681,36.2513522 L445.576681,24.1540799 L417.841471,24.1540799 C415.340525,24.1540799 412.994132,24.6317886 410.802292,25.5872062 C408.610452,26.5426238 406.692591,27.8422726 405.048711,29.4861528 C403.404831,31.1300331 402.105182,33.0478933 401.149765,35.2397336 C400.194347,37.4315739 399.716638,39.777967 399.716638,42.2789129 C399.716638,44.7798589 400.194347,47.1332771 401.149765,49.3391677 C402.105182,51.5450582 403.404831,53.4699436 405.048711,55.1138238 C406.692591,56.757704 408.610452,58.0573529 410.802292,59.0127704 C412.994132,59.968188 415.340525,60.4458968 417.841471,60.4458968 L417.841471,60.4458968 L429.938744,60.4458968 C430.781759,60.4458968 431.568574,60.6004496 432.299187,60.9095553 C433.0298,61.218661 433.669087,61.6471938 434.217047,62.1951539 C434.765007,62.743114 435.19354,63.3824007 435.502646,64.1130142 C435.811752,64.8436276 435.966304,65.630442 435.966304,66.4734575 C435.966304,67.316473 435.811752,68.1032875 435.502646,68.8339009 C435.19354,69.5645143 434.765007,70.2038011 434.217047,70.7517612 C433.669087,71.2997212 433.0298,71.7282541 432.299187,72.0373598 C431.568574,72.3464655 430.781759,72.5010183 429.938744,72.5010183 L429.938744,72.5010183 L403.0887,72.5010183 L403.0887,84.5982906 L429.938744,84.5982906 Z" fill="#063D30" fill-rule="nonzero"></path>
                                        </g>
                                    </g>
                                </g>
                            </g>
                        </g>
                    </g>
                </g>
                <mask id="mask-6" fill="white">
                    <use xlink:href="#path-5"></use>
                </mask>
                <path stroke="#E1B26B" stroke-width="5.51005025" d="M338.433558,31.0395599 C355.928106,24.7404178 375.071894,24.7404178 392.566442,31.0395599 L392.566442,31.0395599 L648.566434,123.215727 C653.484951,124.986704 657.583775,128.205148 660.452969,132.287756 C663.322164,136.370365 664.961729,141.317138 664.961729,146.544773 L664.961729,146.544773 L664.961729,325.455227 C664.961729,330.682862 663.322164,335.629635 660.452969,339.712244 C657.583775,343.794852 653.484951,347.013296 648.566434,348.784273 L648.566434,348.784273 L392.566442,440.96044 C375.071894,447.259582 355.928106,447.259582 338.433558,440.96044 L338.433558,440.96044 L82.4335664,348.784273 C77.5150493,347.013296 73.4162253,343.794852 70.5470306,339.712244 C67.6778359,335.629635 66.0382705,330.682862 66.0382705,325.455227 L66.0382705,325.455227 L66.0382705,146.544773 C66.0382705,141.317138 67.6778359,136.370365 70.5470306,132.287756 C73.4162253,128.205148 77.5150493,124.986704 82.4335664,123.215727 L82.4335664,123.215727 Z"></path>
            </g>
        </g>
    </g>
</svg>